PathFileType	4	(X/Y/Z)	pose_F01_0-96.trc
DataRate	CameraRate	NumFrames	NumMarkers	Units	OrigDataRate	OrigDataStartFrame	OrigNumFrames
30	30	7	21	m	30	24	96
Frame#	Time	CHip			RHip			RKnee			RAnkle			RBigToe			RSmallToe			RHeel			LHip			LKnee			LAnkle			LBigToe			LSmallToe			LHeel			Neck			Nose			RShoulder			RElbow			RWrist			LShoulder			LElbow			LWrist			
		X1	Y1	Z1	X2	Y2	Z2	X3	Y3	Z3	X4	Y4	Z4	X5	Y5	Z5	X6	Y6	Z6	X7	Y7	Z7	X8	Y8	Z8	X9	Y9	Z9	X10	Y10	Z10	X11	Y11	Z11	X12	Y12	Z12	X13	Y13	Z13	X14	Y14	Z14	X15	Y15	Z15	X16	Y16	Z16	X17	Y17	Z17	X18	Y18	Z18	X19	Y19	Z19	X20	Y20	Z20	X21	Y21	Z21	
24	0.8	-0.1710584454356478	1.817140143871981	-0.5713628132104769	-0.18961444257040871	1.8153274549060074	-0.5113237690807664	-0.17922781320614342	1.6925836431033303	-0.4815680156213105	-0.27548498376513014	1.5514572586334037	-0.5102641025295752	-0.27998456807895034	1.5189153192763019	-0.5332430268031891	-0.27668475515241236	1.5232088296137531	-0.5022333615138955	-0.1724856465134496	1.5654931644864931	-0.46637946393669355	-0.15563259880604977	1.8175545312081187	-0.6264474224176403	-0.14910589844242814	1.6955120081812542	-0.5851857199580647	-0.15404375679569085	1.5709127215461658	-0.5599695238251133	-0.1958724160508677	1.5393092137929167	-0.5825554011582704	-0.1841096409288134	1.541902705006773	-0.5937693310821661	-0.1432337660912221	1.5578412796176972	-0.5482784579673577	-1.7354025896592173	1.8895167373733779	1.1528550025568471	-0.19535871073622624	2.0336261691345796	-0.6086116397645136	-0.18396246922402265	1.9744989144228997	-0.5088590675066746	-0.19788675501298622	1.8905334554264988	-0.4816984867041256	-0.21732649706674706	1.824536697183656	-0.495525450675343	-0.12972640846755878	1.982412057559048	-0.6719406148851983	-0.12396080793263287	1.9002909801686148	-0.6940327087543503	-0.1302817202763373	1.821240263041941	-0.6877844620360785
25	0.8333333333333334	-0.17084609384666932	1.818527827506173	-0.5715989142841392	-0.18634518255975488	1.817649559940333	-0.5107962086338603	-0.1772433013629532	1.6923625783837601	-0.4837777095767592	-0.27548498376513014	1.5514572586334037	-0.5102641025295752	-0.27998456807895034	1.5189153192763019	-0.5332430268031891	-0.27668475515241236	1.5232088296137531	-0.5022333615138955	-0.1724856465134496	1.5654931644864931	-0.46637946393669355	-0.15530931970768808	1.8201689186310337	-0.6269022318895541	-0.14893248554035904	1.6969768797193518	-0.5856154400170258	-0.15371598767299532	1.5722462366093388	-0.5606121053032033	-0.19626445188399066	1.538942031557574	-0.5816889738830502	-0.1841221232350431	1.5419449152161424	-0.5937329037764554	-0.14277020675698787	1.5583653430675473	-0.5492794909259633	-1.7250231997438803	1.8896962050351052	1.1348598190038373	-0.19536596508648132	2.0324628275479935	-0.6081072061303487	-0.18395643520447677	1.974505189862746	-0.5088806901654785	-0.20086483287148668	1.8950673858675455	-0.483563325578638	-0.21981106740595127	1.8365873944039932	-0.5211300206955697	-0.12978331891558725	1.9835663385405324	-0.6723690593552273	-0.12435263670373818	1.9013942385571538	-0.6957323808390279	-0.13054271684230895	1.8202813260013697	-0.687642535618173
26	0.8666666666666667	-0.17300838431936363	1.8247407817892922	-0.5703124153284997	-0.18754018213548432	1.8225541522833772	-0.5147810940988597	-0.1806031229299613	1.6953365976386265	-0.4846885098162947	-0.27548498376513014	1.5514572586334037	-0.5102641025295752	-0.27998456807895034	1.5189153192763019	-0.5332430268031891	-0.27668475515241236	1.5232088296137531	-0.5022333615138955	-0.1724856465134496	1.5654931644864931	-0.46637946393669355	-0.15766278400651385	1.8254396122836523	-0.6252913285624834	-0.1489378169715203	1.6969352909063757	-0.585717961343969	-0.15397691965093935	1.5735121271691028	-0.5602995417121939	-0.19515523957168623	1.537830402102452	-0.5787701308801694	-0.18381162305239973	1.5433013719327768	-0.5943266052272207	-0.14510223164363714	1.5596353976309982	-0.5466454971680724	-1.7239690071685212	1.889715517616203	1.133592674852272	-0.19742398010520634	2.032502234786508	-0.605873698877824	-0.1819298368668498	1.9757161465873767	-0.5112475062845473	-0.2068560054663657	1.9000258040304498	-0.506856312087576	-0.22171176027164968	1.8471661434823896	-0.5752493031362153	-0.1290785929096489	1.983966683753559	-0.6692774471014973	-0.1247444654748435	1.902497496945693	-0.6974320529237054	-0.1325879077086833	1.821240012302364	-0.6883516773520489
27	0.9	-0.17315344194391635	1.8261393774865506	-0.5705118431265821	-0.18955848118484617	1.8260420629658738	-0.5131518994119147	-0.1845638155904789	1.697342061273882	-0.4895524990621783	-0.27548498376513014	1.5514572586334037	-0.5102641025295752	-0.27998456807895034	1.5189153192763019	-0.5332430268031891	-0.27668475515241236	1.5232088296137531	-0.5022333615138955	-0.1724856465134496	1.5654931644864931	-0.46637946393669355	-0.15562517432182515	1.8284005809362858	-0.6279840225285813	-0.14895641510635846	1.6997756868467881	-0.5861009510075501	-0.15423940987772433	1.572188224864272	-0.5597013666828183	-0.19534962927784183	1.5389259707560023	-0.5784536667007322	-0.18413156556869953	1.5419251642702976	-0.5936623973825148	-0.1432648565928471	1.5582231997099512	-0.5482877279386063	-0.16219332444353038	1.9804843681303421	-0.5962600097164271	-0.19869103211191003	2.031139282857678	-0.6002568167256456	-0.18287542673261592	1.9759710201496088	-0.5143682945294261	-0.2185990468118946	1.905972324884588	-0.5353957160954763	-0.21851844857474512	1.8899887968423195	-0.6000586945838331	-0.13282060453541664	1.9843875277521754	-0.673129003324742	-0.1251362942459488	1.9036007553342318	-0.6991317250083828	-0.13463309857505767	1.8221986986033585	-0.6890608190859248
28	0.9333333333333333	-0.17367667683940793	1.8248938296524715	-0.5701734271147137	-0.19019120108641402	1.8236269024434264	-0.5126200600166175	-0.19259768424236212	1.6952807949757027	-0.498087691666109	-0.27548498376513014	1.5514572586334037	-0.5102641025295752	-0.27998456807895034	1.5189153192763019	-0.5332430268031891	-0.27668475515241236	1.5232088296137531	-0.5022333615138955	-0.1724856465134496	1.5654931644864931	-0.46637946393669355	-0.15824082784978416	1.8243131972366982	-0.6250871077477106	-0.1521348830870543	1.6960103799375996	-0.5863702631265919	-0.15397457833191364	1.570691616119565	-0.5601046906882647	-0.196010937539198	1.5373832788857964	-0.582056310683945	-0.18411384681100879	1.5419387027833757	-0.5938639906205326	-0.1435967077316036	1.5578533449106617	-0.5525004879727131	-0.1610825566844557	1.980041106032789	-0.6017429426630541	-0.20158274045116226	2.0302798460727476	-0.6004496022068235	-0.18367112636627136	1.9763448697409098	-0.5176939484176329	-0.22712142174972286	1.9274827831536545	-0.5325001765026669	-0.21532513687784058	1.9328114502022493	-0.6248680860314509	-0.13688429323555149	1.9845462354759218	-0.6888005960103059	-0.12552812301705413	1.9047040137227709	-0.7008313970930604	-0.13667828944143204	1.8231573849043528	-0.6897699608198007
29	0.9666666666666667	-0.17747462958824053	1.8264337680503342	-0.5746158332999282	-0.1919990695741783	1.8272833893009583	-0.5197292572677584	-0.20215046028832045	1.6986651215301727	-0.519305350607738	-0.27548498376513014	1.5514572586334037	-0.5102641025295752	-0.27998456807895034	1.5189153192763019	-0.5332430268031891	-0.27668475515241236	1.5232088296137531	-0.5022333615138955	-0.1724856465134496	1.5654931644864931	-0.46637946393669355	-0.1615929128723989	1.8283068551512567	-0.638504643066137	-0.1549458179473285	1.6993485551842087	-0.5967787902353331	-0.1540166322071867	1.570831339352557	-0.5600839808866589	-0.19398190848900354	1.5376075559046896	-0.5841880961404823	-0.1820006908591751	1.5420013079526007	-0.5959955217498469	-0.1449006705733636	1.5594757721651364	-0.555932318890484	-0.1619630480949614	1.9806509123711715	-0.6050664646917407	-0.20342089437272734	2.029042343753639	-0.6064031714596454	-0.18368995401313135	1.983322821720475	-0.5279933508587807	-0.234343975025871	1.943712531821259	-0.4888678799914709	-0.23187689497202282	1.9513549410067257	-0.5903000973584475	-0.13775557004060016	1.982866390237861	-0.6918050287973334	-0.12778525734316248	1.898445283012721	-0.7104092974399375	-0.14664220108974166	1.8235357680867195	-0.7077862105330782
30	1.0	-0.18038856719589497	1.8260896498039807	-0.575650459832285	-0.19475238935241906	1.8257413568049763	-0.5206494905176495	-0.20987007062328125	1.6977702923333078	-0.519625704035293	-0.27548498376513014	1.5514572586334037	-0.5102641025295752	-0.27998456807895034	1.5189153192763019	-0.5332430268031891	-0.27668475515241236	1.5232088296137531	-0.5022333615138955	-0.1724856465134496	1.5654931644864931	-0.46637946393669355	-0.16452481696137933	1.8253425989120442	-0.6391904666561111	-0.1567745951814836	1.702074144513642	-0.6037720510809017	-0.15426015184618716	1.5724780149975797	-0.559675969470358	-0.19541707968606406	1.5391204012035469	-0.5784248149481888	-0.18107802149983876	1.5420683270381368	-0.5926537182634203	-0.14468073955711666	1.5624161947066402	-0.5526534371845921	-0.16139292845291198	1.9829784484416169	-0.6135637822867858	-0.20713371203895783	2.0316814353040638	-0.6197786567444761	-0.18418135855336626	1.9831419429869512	-0.5391108154939647	-0.22843322906904562	1.945939225431695	-0.45791817770109144	-0.24434536411715607	1.9519068121724832	-0.4541762844053272	-0.1384702804173186	1.9843372929816372	-0.6951735495055209	-0.1293430182743992	1.899289247200302	-0.7168914634040752	-0.15160499995923626	1.8236946070860345	-0.7149360691370271
